<svg width="24" height="24" viewBox="0 0 24 24" fill="none" xmlns="http://www.w3.org/2000/svg">
<path d="M21 3.5C19.89 3.15 18.67 3 17.5 3C15.55 3 13.45 3.4 12 4.5C10.55 3.4 8.45 3 6.5 3C4.55 3 2.45 3.4 1 4.5V19.15C1 19.4 1.25 19.65 1.5 19.65C1.6 19.65 1.65 19.6 1.75 19.6C3.1 18.95 5.05 18.5 6.5 18.5C8.45 18.5 10.55 18.9 12 20C13.35 19.15 15.8 18.5 17.5 18.5C19.15 18.5 20.85 18.8 22.25 19.55C22.35 19.6 22.4 19.6 22.5 19.6C22.75 19.6 23 19.35 23 19.1V4.5C22.4 4.05 21.75 3.75 21 3.5ZM21 17C19.9 16.65 18.7 16.5 17.5 16.5C15.8 16.5 13.35 17.15 12 18V6.5C13.35 5.65 15.8 5 17.5 5C18.7 5 19.9 5.15 21 5.5V17Z" fill="black"/>
<path d="M17.5 9C18.38 9 19.23 9.09 20 9.26V7.74C19.21 7.59 18.36 7.5 17.5 7.5C15.8 7.5 14.26 7.79 13 8.33V9.99C14.13 9.35 15.7 9 17.5 9Z" fill="black"/>
<path d="M13 10.99V12.65C14.13 12.01 15.7 11.66 17.5 11.66C18.38 11.66 19.23 11.75 20 11.92V10.4C19.21 10.25 18.36 10.16 17.5 10.16C15.8 10.16 14.26 10.46 13 10.99Z" fill="black"/>
<path d="M17.5 12.83C15.8 12.83 14.26 13.12 13 13.66V15.32C14.13 14.68 15.7 14.33 17.5 14.33C18.38 14.33 19.23 14.42 20 14.59V13.07C19.21 12.91 18.36 12.83 17.5 12.83Z" fill="black"/>
</svg>
